<svg xmlns="http://www.w3.org/2000/svg" xmlns:xlink="http://www.w3.org/1999/xlink" version="1.1" preserveAspectRatio="xMidYMid meet" viewBox="222.0399932861328 225 195.9199981689453 190" width="640" height="640"><defs><path d="M417.96 320C417.96 372.43 374.06 415 320 415C265.94 415 222.04 372.43 222.04 320C222.04 267.57 265.94 225 320 225C374.06 225 417.96 267.57 417.96 320Z" id="ebNwOrIcx"></path><path d="M307.83 358.9C321.02 366.28 331.39 367.09 338.95 361.32C343.51 357.83 346.19 352.42 346.19 346.68C346.19 336.48 346.19 310.7 346.19 295.67C346.19 285.65 340.93 285.65 330.4 295.67" id="a3SDOqyyJ3"></path><path d="M280 301C298.5 285.33 308.78 276.63 310.84 274.89C317.32 279.47 321.38 282.33 323 283.47C335.06 291.99 334.99 309.9 322.85 318.31C321.25 319.42 317.25 322.19 310.84 326.63C306.73 323.21 296.45 314.67 280 301Z" id="a8RihFmlCO"></path><path d="M310.51 354.09C319.87 358.58 308.01 365.2 305.13 363.69C302.26 362.18 301.14 349.61 310.51 354.09Z" id="e2XhPhYjZU"></path><path d="" id="hb9jkgvlX"></path></defs><g><g><g><use xlink:href="#ebNwOrIcx" opacity="1" fill="#000000" fill-opacity="1"></use></g><g><g><use xlink:href="#a3SDOqyyJ3" opacity="1" fill-opacity="0" stroke="#ffffff" stroke-width="11" stroke-opacity="1"></use></g></g><g><g><use xlink:href="#a8RihFmlCO" opacity="1" fill-opacity="0" stroke="#ffffff" stroke-width="11" stroke-opacity="1"></use></g></g><g><use xlink:href="#e2XhPhYjZU" opacity="1" fill="#ffffff" fill-opacity="1"></use></g><g><g><use xlink:href="#hb9jkgvlX" opacity="1" fill-opacity="0" stroke="#000000" stroke-width="1" stroke-opacity="1"></use></g></g></g></g></svg>
